<svg xmlns="http://www.w3.org/2000/svg" viewBox="0 0 300 300"><defs><style>      .cls-1 {        fill: #fff;      }    </style></defs><g><g id="Layer_1"><g><polygon class="cls-1" points="211.1 124 220.2 117.6 238.9 145 252.2 135.9 244.7 125.2 236.4 131 233.1 126.3 241.4 120.5 236.9 113.9 241.5 110.6 246.1 117.2 255 111 258.3 115.7 249.4 121.9 256.9 132.7 270.8 123.3 251.9 95.5 264.1 87 259 79.7 211.1 113.1 211.1 124"></polygon><polygon class="cls-1" points="43.1 132.7 50.7 121.9 41.8 115.7 45.1 111 53.9 117.2 58.5 110.6 63.2 113.9 58.6 120.5 66.9 126.3 63.6 131 55.3 125.2 47.8 135.9 61.2 145 79.8 117.6 89.2 124.1 89.2 113.2 41.1 79.7 36 87 48.2 95.5 29.3 123.3 43.1 132.7"></polygon><path class="cls-1" d="M92.3,206.8l10.8-7.5c-1.9-2.3-3.6-4.7-5.2-7.3l-10.7,7.5c-8.4-9-21.9-12.2-33.8-7.2-.9-1.3-2.3-2.2-3.9-2.5-1.6-.3-3.2,0-4.6,1-2.7,1.9-3.4,5.6-1.6,8.4-8.1,8.4-10.8,21.2-6.1,32.5-1.2.9-2,2.2-2.3,3.7-.3,1.6,0,3.2,1,4.6.9,1.3,2.3,2.3,3.9,2.6.4,0,.7.1,1.1.1,1.1,0,2.1-.3,3.1-.9,2.9,2.8,6.3,5,10.2,6.5,3.6,1.4,7.3,2.1,10.9,2.1s.3,0,.5,0c-.4-1.8-.2-3.4.6-5,0,0,0,0,0,0-.6-1.3-.8-2.6-.7-3.9h0s0,0,0,0c0-1,.3-2,.7-3-.2-1.9-1.7-3.6-3.7-4-2.5-.4-4.9,1.2-5.4,3.7-.1.6,0,1.2,0,1.7-5.1-2.1-9.2-6-11.4-11.1-1.2-2.6-1.8-5.4-1.8-8.2.5.3,1,.5,1.5.6.3,0,.6,0,.8,0,.9,0,1.8-.3,2.6-.8,1-.7,1.7-1.8,1.9-3,.5-2.5-1.2-4.9-3.7-5.4-.5,0-1.1,0-1.6,0,2.1-5.2,6-9.2,11.1-11.5,2.6-1.1,5.3-1.7,8-1.8-.2.4-.4.8-.5,1.3-.2,1.2,0,2.4.7,3.5.7,1,1.8,1.7,3,1.9.3,0,.6,0,.9,0,.9,0,1.8-.3,2.6-.8,1-.7,1.7-1.8,1.9-3,0-.5,0-.9,0-1.4,5.2,2.1,9.3,6,11.5,11.1,1.1,2.6,1.7,5.3,1.8,8.1-.4-.2-.9-.4-1.4-.5-2.5-.5-4.9,1.2-5.4,3.7-.2,1.2,0,2.5.7,3.5.7,1,1.7,1.7,3,1.9h0c.3,0,.6,0,.8,0s.5,0,.7-.1c-1.8,4.5-5.1,8.2-9.3,10.6.2,1.7,0,3.3-.5,4.9.6,1.6.8,3.3.5,4.9.4-.2.9-.3,1.4-.5.9,1.3,2.3,2.1,3.8,2.4.4,0,.7.1,1.1.1,1.2,0,2.4-.4,3.5-1.1,1.3-.9,2.3-2.3,2.6-3.9.3-1.6,0-3.1-.9-4.4,2.7-2.8,4.9-6.2,6.3-10,2.9-7.5,2.7-15.8-.5-23.2-.2-.4-.4-.8-.6-1.1"></path><path class="cls-1" d="M223.5,73.2l-.5,2c-.5,2,.6,4,2.5,4.6,3.7,1.2,9.9,3.4,17.1,6l-1.7-14.3,11.6-8.1-12.1-3.8-7.3,17.4-9.6-3.8Z"></path><path class="cls-1" d="M76.6,73.2l.5,2c.5,2-.6,4-2.5,4.6-3.7,1.2-9.9,3.4-17.1,6l1.7-14.3-11.6-8.1,12.2-3.9,7.2,17.4,9.6-3.8Z"></path><polygon class="cls-1" points="184 47.6 187.4 48.1 186.5 42.2 184 47.6"></polygon><path class="cls-1" d="M236.7,44.8c-27.6-10.5-56.7-15.8-86.6-15.8s-59,5.3-86.6,15.8c-3.4,1.3-5,5-3.7,8.4l8.5,20.7c25.9-10.7,53.4-16.1,81.7-16.1s55.8,5.4,81.7,16.1l8.5-20.7c1.4-3.3-.3-7.1-3.7-8.4M93.2,55.8c-.3.8-.9,1.5-1.6,2.1-.7.6-1.6,1-2.7,1.3-1.2.3-2.2.4-3.1.2-.9-.2-1.7-.5-2.4-1-.7-.5-1.3-1.2-1.7-2-.5-.8-.8-1.7-1.1-2.6l-2-7.3,3.3-.9,2,7.3c.1.5.4,1,.6,1.5.2.5.5.9.9,1.2.4.3.8.5,1.2.7.4.1.9.1,1.5,0,.6-.2,1-.4,1.4-.8s.5-.7.7-1.2c.1-.5.2-1,.1-1.5,0-.5-.1-1.1-.3-1.6l-2-7.3,3.3-.9,2,7.3c.3,1,.4,2,.4,2.9,0,.9-.2,1.8-.5,2.6M119.1,52.9l-8-7.4,1.3,8.4-3.4.5-2.2-14.8,2.7-.4,8.1,7.7-1.3-8.7,3.4-.5,2.2,14.8-2.8.4ZM136.1,51.3l-.8-14.9,3.4-.2.8,14.9-3.4.2ZM157,45.2c.2.6.4,1,.7,1.5.3.4.7.8,1.2,1,.5.3,1,.4,1.6.4.4,0,.9,0,1.3-.2.4-.1.9-.3,1.2-.6.4-.3.7-.7.9-1.1l2.7,1.8c-.3.7-.8,1.3-1.5,1.8-.7.5-1.5.9-2.3,1.1-.9.2-1.7.3-2.5.3-1.1,0-2.1-.3-2.9-.8-.9-.5-1.6-1.1-2.3-1.9-.6-.8-1.1-1.6-1.4-2.5-.3-.9-.5-1.9-.4-2.8,0-.9.2-1.8.6-2.7.4-.9.9-1.6,1.6-2.3.7-.7,1.5-1.2,2.4-1.6.9-.4,2-.6,3.2-.5,1.4,0,2.6.4,3.6,1.1,1,.6,1.7,1.5,2.2,2.4l-2.7,1.7c-.2-.5-.5-1-.8-1.3-.4-.3-.8-.5-1.2-.7-.4-.1-.9-.2-1.3-.2-.7,0-1.2,0-1.7.3-.5.2-.9.6-1.3,1-.3.4-.6.9-.8,1.4-.2.5-.3,1.1-.3,1.6,0,.6,0,1.2.2,1.7M188.2,54l-.5-3.5-4.9-.7-1.5,3.2-3.5-.5,7.3-14,3.7.6,2.8,15.5-3.5-.5ZM216.6,60.6l-3.3-.9,1.6-5.9-5.7-1.6-1.6,5.9-3.3-.9,3.9-14.4,3.3.9-1.5,5.6,5.7,1.6,1.5-5.6,3.3.9-3.9,14.4Z"></path><path class="cls-1" d="M199.6,91.5l-13.5-2.9c-11.8-2.6-23.8-3.9-35.8-3.9s-23.5,1.2-35,3.7l-14.7,3.1c-4.4,1-7.6,4.9-7.6,9.4v59.6c0,30.3,23.7,55.1,53.6,56.9v-14.5c-.3,0-.7,0-1.2,0-3.1,0-8-.4-13.3-2.5l-2.6-1.1c-1.5-.8-3-1.6-4.4-2.6-2.7-1.9-5.1-4-7.2-6.3l-2-2.5c-4.3-5.7-6.8-12.6-7.3-20l-.4-6.4,5.4,4.5c.5.4,1.1.9,1.7,1.4,0,0,1.3-1.7,1.6-2.2-4.3-.3-8.2-2.9-10-6.8l-.4-.6v-.6c0,0,0-1.9,0-1.9,0,0,1.8-.7,1.9-.8-2.7-1.7-4.6-4.6-5.2-7.9-.1-.8-.3-1.6-.4-2.4l-.4-3.3h1.7c-1.3-1.7-2.1-3.9-2.2-6.2-.1-2.1-.1-3.6,0-4.7l.3-3.2,44.3,12.6v-16.2h-30.7c-1.7,0-3.2-1.4-3.2-3.1v-1.9c0-1.7,1.4-3.1,3.2-3.1h30.7v-17.1c0-1.7,1.4-3.1,3.1-3.1h1.9c1.7,0,3.2,1.4,3.2,3.1v17.1h29.4c1.7,0,3.2,1.4,3.2,3.1v1.9c0,1.7-1.4,3.1-3.2,3.1h-29.4v28.4h0c.9,0,1.4-.2,1.7-.6.3-.3.5-.8.4-1.3-.3-5,.4-7.5,2.9-9.9,2-1.9,4.4-2.9,6.9-2.9,4,0,7.8,2.5,8.9,5.8,0,0,.2.2.4.3.8-1.1,1.8-2,2.9-2.8-1-3.3,0-6.9,2.6-9.3l2.1-1.8,1.8,2.1c1.6,1.8,2.3,4,2.2,6.3,1-.4,2-.5,3-.5,2.9,0,5.6,1.4,7.3,3.7l1.6,2.3-2.3,1.6c-1.5,1.1-3.3,1.7-5.2,1.7s-2.4-.2-3.5-.7c.5.9.9,1.9,1.1,2.9l.5,2.8-2.8.4c-.5,0-1,.1-1.5.1-2.1,0-4.1-.8-5.7-2.1-.3,1.2-.3,2.4,0,3.6.5,1.8,1.7,3.3,3.3,4.3l2.4,1.3-3.3,5.9-2.4-1.4c-1.4-.8-2.6-1.8-3.6-2.9-.4,4.7-3.9,9.3-9.9,13l-.5.3c-3.6,2.2-8.1,5-11.4,9.7v33.8c29.2-2.4,52.3-26.9,52.3-56.8v-59.6c0-4.5-3.1-8.4-7.5-9.4"></path><path class="cls-1" d="M195.7,142.2c-1.1.8-2.4,1.2-3.6,1.2s-3.2-.6-4.4-1.8c-.2,0-.4,0-.6,0-2.3,0-4.5.8-6.2,2.2,2.9,0,5.6,2.1,6.1,5.1-.4,0-.7.1-1.1.1-2.7,0-5.1-1.8-5.9-4.3-.5.6-1.1,1.2-1.5,1.9-2.7,4.7-1,10.7,3.7,13.4l-.6,1.1c-4.8-2.7-6.8-8.5-4.9-13.5h0c-1.3.1-4.4.2-5.5.4-.5.1-1,.4-1.4.8-.4.4-.9,1.1-.7,2.1.4,2,4.5,3.5,4.8,8.2.2,4.3-3,8.6-8.6,12.1-6.5,4-18.3,10.7-17.7,28.9,0,0-.8,0-2.2,0-2.6,0-7.2-.3-12.3-2.3.8-1.7,3.5-8.6,4.3-10-.5.6-5.4,7.6-6.4,9.1-1.4-.7-2.9-1.5-4.3-2.5-2.6-1.8-4.8-3.8-6.7-5.9,1.5-1,7.4-4.8,8.8-5.6-.8.3-8.7,3.2-10.3,3.8-4.5-5.8-6.7-12.5-7.1-19,3.1,2.6,7.3,6.5,16.2,6.8.2,0,.5,0,.8,0,8.5,0,15.7-5.1,19-10,1.5-2.4.3-3.7,0-4-.2-.1-.7-.5-1.4-.5s-2,.5-3.1,2.6c-2.2,4.2-4.8,5.7-9.1,6.9-1.6.4-3.5.8-5.7.8-3.1,0-6.5-.6-9.6-2.4,1.1-1.5,5.4-7.3,6.5-8.5,0,0-.5.4-1.3,1-1.7,1.4-3.8,2.1-5.8,2.1-3.4,0-6.7-1.9-8.3-5.2,0,0,0,0,0-.1,1.7-.7,8.3-3.5,9.8-4-.3,0-1.3.2-2.5.4-.5,0-1.1.1-1.6.1-4.4,0-8.2-3.2-9-7.6-.1-.7-.3-1.5-.4-2.3,1.8,0,8.8.2,10.4.4-.3-.1-2.2-.6-4.3-1.1-3.9-1-6.8-4.4-7-8.5,0-1.7-.1-3.2,0-4.3l44.4,12.6s1.5.4,1.7,1.8c.2,1.4-.5,1.9-.9,3-.4,1.2-.6,5.9,4.6,6.5.2,0,.4,0,.5,0,2.9,0,4.9-2.1,4.7-4.8-.3-4.8.5-6.2,2.1-7.8,1.6-1.5,3.4-2.1,5-2.1,3.1,0,5.9,2.1,6.3,4.1.2,1,2.9,2.6,3.9,3.1.1-.3.2-.7.4-1,1.2-2.1,3-3.7,5.1-4.6-1.9-2.6-1.6-6.2.9-8.3,2,2.2,2,5.6.3,7.9,1.1-.4,2.3-.6,3.5-.6s.5,0,.8,0c.9-.4,1.8-.7,2.8-.7,1.9,0,3.8.9,5,2.6"></path><path class="cls-1" d="M214.9,233.8c-.4.2-.7.4-1.2.7.6.2,1.1.4,1.5.6-.1-.4-.3-.9-.4-1.3"></path><path class="cls-1" d="M207.8,206.8l-10.8-7.5c1.9-2.3,3.6-4.7,5.2-7.3l10.7,7.5c8.4-9,21.9-12.2,33.8-7.2.9-1.3,2.3-2.2,3.9-2.5,1.6-.3,3.2,0,4.6,1,2.7,1.9,3.4,5.6,1.6,8.4,8.1,8.4,10.8,21.2,6.1,32.5,1.2.9,2,2.2,2.3,3.7.3,1.6,0,3.2-1,4.6-.9,1.3-2.3,2.3-3.9,2.6-.4,0-.7.1-1.1.1-1.1,0-2.1-.3-3.1-.9-2.9,2.8-6.3,5-10.2,6.5-3.6,1.4-7.3,2.1-10.9,2.1s-.3,0-.5,0c.4-1.8.2-3.4-.6-5,0,0,0,0,0,0,.6-1.3.8-2.6.7-3.9h0s0,0,0,0c0-1-.3-2-.7-3,.2-1.9,1.7-3.6,3.7-4,2.5-.4,4.9,1.2,5.4,3.7.1.6,0,1.2,0,1.7,5.1-2.1,9.2-6,11.5-11.1,1.2-2.6,1.8-5.4,1.8-8.2-.5.3-1,.5-1.5.6-.3,0-.6,0-.8,0-.9,0-1.8-.3-2.6-.8-1-.7-1.7-1.8-1.9-3-.5-2.5,1.2-4.9,3.7-5.4.5,0,1.1,0,1.6,0-2.1-5.2-6-9.2-11.1-11.5-2.6-1.1-5.3-1.7-8-1.8.2.4.4.8.5,1.3.2,1.2,0,2.4-.7,3.5-.7,1-1.8,1.7-3,1.9-.3,0-.6,0-.9,0-.9,0-1.8-.3-2.6-.8-1-.7-1.7-1.8-1.9-3,0-.5,0-.9,0-1.4-5.2,2.1-9.3,6-11.5,11.1-1.1,2.6-1.7,5.3-1.8,8.1.4-.2.9-.4,1.4-.5,2.5-.5,4.9,1.2,5.4,3.7.2,1.2,0,2.5-.7,3.5-.7,1-1.7,1.7-3,1.9h0c-.3,0-.6,0-.8,0s-.5,0-.7-.1c1.8,4.5,5.1,8.2,9.3,10.6-.2,1.7,0,3.3.5,4.9-.6,1.6-.8,3.3-.5,4.9-.4-.2-.9-.3-1.4-.5-.9,1.3-2.3,2.1-3.8,2.4-.4,0-.7.1-1.1.1-1.2,0-2.4-.4-3.5-1.1-1.3-.9-2.3-2.3-2.6-3.9-.3-1.6,0-3.1.9-4.4-2.7-2.8-4.9-6.2-6.3-10-2.9-7.5-2.7-15.8.5-23.2.2-.4.4-.8.6-1.1"></path><path class="cls-1" d="M137.6,221.5c-1.3.8-1.9,1.9-2.1,3.4,1.2-.4,2.6-.8,3.7-1.4,1.1-.5,2.3-1,3.3-1.8.3-.2.5-.4.8-.6-1.4-.1-2.8-.4-4.1-.6-.5.3-1.1.6-1.6.9"></path><path class="cls-1" d="M131.5,229.3c-1.6.4-2.9,1-3.5,2.6,1.8,0,3.9.3,5.8,0,1-.2,2-.2,3.4-1,1.2-.8,2.2-1.9,2.5-3.4-1.9.7-3.8,1.1-5.5,1.4-.9.1-1.9.3-2.7.4"></path><path class="cls-1" d="M134.9,225.7c-1.6.5-2.3,1.6-2.9,3.1,1.9,0,3.7-.5,5.6-1,1.1-.4,2.2-.9,3.3-1.6,1.2-.9,1.9-2.3,1.9-3.8-1.3.8-2.7,1.4-4,2-1.4.5-2.6,1-3.9,1.4"></path><path class="cls-1" d="M132.1,232.5c-1.9,0-3.5,0-5.2,0-1.6-.1-2.6.7-3.5,1.9,1.3.4,2.5.5,3.9.7,1.2.2,2.5.3,3.7.2,1.5-.1,3.1-.7,4.1-2.1.3-.4.5-.8.8-1.3-.7.1-1.2.2-1.7.3-.7.1-1.3.3-2,.3"></path><path class="cls-1" d="M117.5,236.4c-1.7-.6-3-.1-4.4.8,1.7,1.1,3.4,1.7,5.2,2.6,1,.3,1.9.9,3.5.8,1.4,0,2.8-.6,3.8-1.6-2-.5-3.8-1-5.5-1.5-.8-.3-1.8-.7-2.6-1"></path><path class="cls-1" d="M122.3,234.8c-1.7-.4-2.8.4-4.1,1.3,1.8.9,3.5,1.3,5.4,1.8,1.2.3,2.4.4,3.6.2,1.4-.2,2.8-.9,3.5-2.3-1.5,0-3-.2-4.4-.4-1.4-.2-2.7-.4-4.1-.7"></path><path class="cls-1" d="M116.5,239.4c-1.7-.6-3.2-1.5-4.8-2.3-1.4-.7-2.8-.3-4.1.4,1.1.9,2.2,1.4,3.4,2.1,1,.6,2.1,1.3,3.3,1.8,1.4.7,3,.5,4.5,0,.4-.2.8-.4,1.3-.7-.7-.2-1.2-.4-1.6-.6-.6-.2-1.3-.5-1.9-.7"></path><path class="cls-1" d="M101.3,237.4c-1.5-1-2.9-1.3-4.6-.7,1.4,1.4,2.8,2.7,4.3,4.1.8.6,1.5,1.2,3,1.7,1.3.5,2.7.5,4-.1-1.6-1.2-3.1-2.3-4.5-3.4-.7-.5-1.5-1.1-2.2-1.6"></path><path class="cls-1" d="M108.3,238.7c-.6-.4-1.2-.8-1.8-1.2-1.4-.9-2.9-.9-4.4-.1,1.4,1.2,2.9,2.4,4.5,3.5,1,.7,2,1.3,3.2,1.6,1.4.4,2.8.2,4.1-.6-1.3-.8-2.6-1.5-3.8-2.2-.6-.4-1.2-.7-1.8-1"></path><path class="cls-1" d="M99.4,239.9c-1.4-1.2-2.6-2.4-4-3.5-.3-.2-.6-.4-.9-.5-.4.7-.8,1.4-1.2,2.1.2.3.5.5.7.8.9.8,1.7,1.7,2.7,2.5,1.2,1,2.6,1.5,4.2,1.4.4,0,.9-.2,1.4-.4-.5-.4-1-.7-1.3-1-.5-.4-1-.9-1.6-1.3"></path><path class="cls-1" d="M92.3,241.2c1.2.8,2.7.8,4,.4-1.1-1-2.1-2-3.1-3,0,0-.1-.1-.2-.2-.5.7-1,1.4-1.6,2.1.3.2.5.5.8.7"></path><path class="cls-1" d="M70.5,247.5c.7-1.2,1.4-2.4,2.1-3.6.8-1.5,1.1-3.2.8-5.1-.4-1.3-1.1-1.2-1.3,0-.4.7-.7,1.3-1.1,2-1,1.8-2,3.6-3,5.4-.8,1.7-.6,3.5.1,5.3.8-1.4,1.6-2.7,2.3-4"></path><path class="cls-1" d="M71.7,238.8c0-1.7-3-1.3-3.4,0-.8,1.9-.9,3.9,0,5.8,1.2-1.9,2.3-3.9,3.5-5.8"></path><path class="cls-1" d="M72.7,263.4c1.3-.8,2.2-2.2,2.2-3.9s-.7-2.7-1.7-3.5c0,0,0,0,0-.1.4-1.6.4-3.2-.2-4.7-.8,1.3-1.5,2.5-2.3,3.8-.1,0-.2,0-.4,0s-.1,0-.2,0c.4-.7.9-1.5,1.3-2.2.7-1.2,1.3-2.4,1.7-3.7.5-1.6.4-3.2-.2-4.7-.9,1.5-1.7,2.9-2.5,4.3-.8,1.4-1.6,2.8-2.3,4.3-.5,1-.7,2-.6,3.1-1,.8-1.7,2.1-1.7,3.5s.9,3.1,2.2,3.9l-2.5,6.9c1.5.6,3.1.9,4.8.9s3.3-.4,4.8-.9l-2.5-6.9Z"></path><path class="cls-1" d="M162.4,221.5c1.3.8,1.9,1.9,2.1,3.4-1.2-.4-2.6-.8-3.7-1.4-1.1-.5-2.3-1-3.3-1.8-.3-.2-.5-.4-.8-.6,1.4-.1,2.8-.4,4.1-.6.5.3,1.1.6,1.6.9"></path><path class="cls-1" d="M168.6,229.3c1.6.4,2.9,1,3.5,2.6-1.8,0-3.9.3-5.8,0-1-.2-2-.2-3.4-1-1.2-.8-2.2-1.9-2.5-3.4,1.9.7,3.8,1.1,5.5,1.4.9.1,1.9.3,2.7.4"></path><path class="cls-1" d="M165.1,225.7c1.6.5,2.3,1.6,2.9,3.1-1.9,0-3.7-.5-5.6-1-1.1-.4-2.2-.9-3.3-1.6-1.2-.9-1.9-2.3-1.9-3.8,1.3.8,2.7,1.4,4,2,1.4.5,2.6,1,3.9,1.4"></path><path class="cls-1" d="M168,232.5c1.9,0,3.5,0,5.2,0,1.6-.1,2.6.7,3.5,1.9-1.3.4-2.5.5-3.9.7-1.2.2-2.5.3-3.7.2-1.5-.1-3.1-.7-4.1-2.1-.3-.4-.5-.8-.8-1.3.7.1,1.2.2,1.7.3.7.1,1.3.3,2,.3"></path><path class="cls-1" d="M182.6,236.4c1.7-.6,3-.1,4.4.8-1.7,1.1-3.4,1.7-5.2,2.6-1,.3-1.9.9-3.5.8-1.4,0-2.8-.6-3.8-1.6,2-.5,3.8-1,5.5-1.5.8-.3,1.8-.7,2.6-1"></path><path class="cls-1" d="M177.7,234.8c1.7-.4,2.8.4,4.1,1.3-1.8.9-3.5,1.3-5.4,1.8-1.2.3-2.4.4-3.6.2-1.4-.2-2.8-.9-3.5-2.3,1.5,0,3-.2,4.4-.4,1.4-.2,2.7-.4,4.1-.7"></path><path class="cls-1" d="M183.6,239.4c1.7-.6,3.2-1.5,4.8-2.3,1.4-.7,2.8-.3,4.1.4-1.1.9-2.2,1.4-3.4,2.1-1,.6-2.1,1.3-3.3,1.8-1.4.7-3,.5-4.5,0-.4-.2-.8-.4-1.3-.7.7-.2,1.2-.4,1.6-.6.6-.2,1.3-.5,1.9-.7"></path><path class="cls-1" d="M198.8,237.4c1.5-1,2.9-1.3,4.6-.7-1.4,1.4-2.8,2.7-4.3,4.1-.8.6-1.5,1.2-3,1.7-1.3.5-2.7.5-4-.1,1.6-1.2,3.1-2.3,4.5-3.4.7-.5,1.5-1.1,2.2-1.6"></path><path class="cls-1" d="M191.8,238.7c.6-.4,1.2-.8,1.8-1.2,1.4-.9,2.9-.9,4.4-.1-1.4,1.2-2.9,2.4-4.5,3.5-1,.7-2,1.3-3.2,1.6-1.4.4-2.8.2-4.1-.6,1.3-.8,2.6-1.5,3.8-2.2.6-.4,1.2-.7,1.8-1"></path><path class="cls-1" d="M200.7,239.9c1.4-1.2,2.6-2.4,4-3.5.3-.2.6-.4.9-.5.4.7.8,1.4,1.2,2.1-.2.3-.5.5-.7.8-.9.8-1.7,1.7-2.7,2.5-1.2,1-2.6,1.5-4.2,1.4-.4,0-.9-.2-1.4-.4.5-.4,1-.7,1.3-1,.5-.4,1-.9,1.6-1.3"></path><path class="cls-1" d="M207.8,241.2c-1.2.8-2.7.8-4,.4,1.1-1,2.1-2,3.1-3,0,0,.1-.1.2-.2.5.7,1,1.4,1.6,2.1-.3.2-.5.5-.8.7"></path><path class="cls-1" d="M229.4,247.7c-.7-1.2-1.4-2.4-2.1-3.6-.8-1.5-1.1-3.2-.8-5.1.4-1.3,1.1-1.2,1.3,0,.4.7.7,1.3,1.1,2,1,1.8,2,3.6,3,5.4.8,1.7.6,3.5-.1,5.3-.8-1.4-1.6-2.7-2.3-4"></path><path class="cls-1" d="M228.3,239c0-1.7,3-1.3,3.4,0,.8,1.9.9,3.9,0,5.8-1.2-1.9-2.3-3.9-3.5-5.8"></path><path class="cls-1" d="M227.2,263.6c-1.3-.8-2.2-2.2-2.2-3.9s.7-2.7,1.7-3.5c0,0,0,0,0-.1-.4-1.6-.4-3.2.2-4.7.8,1.3,1.5,2.5,2.3,3.8.1,0,.2,0,.4,0s.1,0,.2,0c-.4-.7-.9-1.5-1.3-2.2-.7-1.2-1.3-2.4-1.7-3.7-.5-1.6-.4-3.2.2-4.7.9,1.5,1.7,2.9,2.5,4.3.8,1.4,1.6,2.8,2.3,4.3.5,1,.7,2,.6,3.1,1,.8,1.7,2.1,1.7,3.5s-.9,3.1-2.2,3.9l2.5,6.9c-1.5.6-3.1.9-4.8.9s-3.3-.4-4.8-.9l2.5-6.9Z"></path></g></g></g></svg>